<?xml version="1.0" encoding="UTF-8" standalone="no"?>
<svg
   version="1.0"
   width="300.000000pt"
   height="300.000000pt"
   viewBox="0 0 300.000000 300.000000"
   preserveAspectRatio="xMidYMid meet"
   id="svg2"
   inkscape:version="1.4.2 (f4327f4, 2025-05-13)"
   sodipodi:docname="bq.svg"
   xmlns:inkscape="http://www.inkscape.org/namespaces/inkscape"
   xmlns:sodipodi="http://sodipodi.sourceforge.net/DTD/sodipodi-0.dtd"
   xmlns:xlink="http://www.w3.org/1999/xlink"
   xmlns="http://www.w3.org/2000/svg"
   xmlns:svg="http://www.w3.org/2000/svg"
   xmlns:rdf="http://www.w3.org/1999/02/22-rdf-syntax-ns#"
   xmlns:cc="http://creativecommons.org/ns#"
   xmlns:dc="http://purl.org/dc/elements/1.1/">
  <defs
     id="defs12">
    <linearGradient
       inkscape:collect="always"
       id="linearGradient849">
      <stop
         style="stop-color:#fffdf4;stop-opacity:1"
         offset="0"
         id="stop845" />
      <stop
         style="stop-color:#d6d0c2;stop-opacity:1"
         offset="1"
         id="stop847" />
    </linearGradient>
    <linearGradient
       inkscape:collect="always"
       xlink:href="#linearGradient849"
       id="linearGradient851"
       x1="11.97197"
       y1="158.32705"
       x2="288.98104"
       y2="158.32705"
       gradientUnits="userSpaceOnUse" />
  </defs>
  <sodipodi:namedview
     pagecolor="#ffffff"
     bordercolor="#666666"
     borderopacity="1"
     objecttolerance="10"
     gridtolerance="10"
     guidetolerance="10"
     inkscape:pageopacity="0"
     inkscape:pageshadow="2"
     inkscape:window-width="1392"
     inkscape:window-height="1002"
     id="namedview10"
     showgrid="false"
     inkscape:zoom="1.8080191"
     inkscape:cx="228.15024"
     inkscape:cy="178.64856"
     inkscape:window-x="0"
     inkscape:window-y="10"
     inkscape:window-maximized="0"
     inkscape:current-layer="svg2"
     inkscape:pagecheckerboard="true"
     inkscape:showpageshadow="2"
     inkscape:deskcolor="#d1d1d1"
     inkscape:document-units="pt">
    <inkscape:grid
       type="xygrid"
       id="grid22745"
       originx="0"
       originy="0"
       spacingy="1"
       spacingx="1"
       units="px" />
  </sodipodi:namedview>
  <metadata
     id="metadata4">
Created by potrace 1.12, written by Peter Selinger 2001-2015
<rdf:RDF>
  <cc:Work
     rdf:about="">
    <dc:format>image/svg+xml</dc:format>
    <dc:type
       rdf:resource="http://purl.org/dc/dcmitype/StillImage" />
    <dc:title />
  </cc:Work>
</rdf:RDF>
</metadata>
  <path
     sodipodi:nodetypes="zccscccscssssscsscssscsscscsssscssscssssccsccscsz"
     inkscape:connector-curvature="0"
     id="path855"
     d="m 143.14433,279.70158 c -22.02209,0.193 -48.156805,-2.72209 -57.45315,-4.0966 -9.296342,-1.37449 -17.441165,-3.46015 -21.596817,-5.44184 -4.679554,-1.57967 -6.876805,-2.54595 -7.767353,-6.0038 -2.064987,-8.01803 -2.649736,-22.71385 -2.649736,-32.28386 0,-29.49243 0.518882,-34.40368 3.895683,-36.87286 2.945119,-2.15353 3.280801,-3.60261 1.375723,-5.93878 -1.38598,-1.69958 -4.698606,-10.25699 -7.361397,-19.01642 -7.17609,-23.60626 -19.14044,-51.12795 -22.241311,-51.16184 -8.796044,-0.52814 -16.36983,-9.96198 -17.253561,-18.35699 -1.358312,-12.903279 8.98541,-22.625922 20.276328,-22.625922 8.706607,0 15.919737,4.552383 18.649542,11.796098 2.198513,5.833896 3.296423,14.606144 -4.008153,23.557794 -2.202674,2.69935 -0.871838,4.45301 13.01279,19.88117 19.933169,22.14913 32.618392,36.03579 34.516962,34.69052 2.001321,-1.23688 4.652388,-24.75526 8.10144,-58.24093 C 105.626,80.6099 106.65441,80.99494 101.29905,78.990433 90.127787,74.809039 87.824543,64.933718 87.813466,57.097874 c -0.005,-3.50734 1.528274,-8.935626 5.347169,-13.082281 4.297081,-4.665884 9.712245,-7.066148 16.839125,-7.066148 19.39146,0 28.12106,20.805231 15.18178,36.182694 l -6.08527,6.02067 6.46758,19.749655 c 5.78173,17.655356 13.04651,37.977166 18.8983,53.241886 2.52647,6.59044 4.98732,10.08728 8.61374,4.81425 2.56389,-4.44078 16.26496,-37.13037 22.62257,-58.056136 l 5.32978,-20.098694 -6.01526,-4.681161 c -5.29964,-4.124257 -8.47679,-14.454916 -5.44993,-22.520155 3.08527,-8.220864 11.55071,-14.888696 21.18197,-14.653009 7.12474,0.17435 10.77793,1.453746 16.00884,7.053453 3.84818,4.119492 5.88909,10.930472 5.88413,14.144491 -0.0111,7.835844 -3.73114,16.496613 -13.19227,20.843044 -5.19611,2.387085 -4.55489,2.156377 -1.57018,31.133797 0.10591,1.02858 0.21216,2.04805 0.3186,3.05802 3.35861,31.87027 6.07092,53.4471 8.01074,54.646 2.05232,1.26839 16.0574,-12.31147 35.29516,-34.22361 12.82396,-14.60669 15.39256,-17.28596 12.30769,-21.3158 -11.64926,-15.217667 -2.81087,-34.370487 14.56831,-34.386172 13.1967,-0.01191 22.18595,11.468435 20.37266,22.868922 -1.26002,7.9219 -8.66455,16.58613 -17.34988,18.11399 -3.10089,0.0338 -15.06525,27.55558 -22.24135,51.16184 -2.66277,8.75943 -5.9754,17.31684 -7.36138,19.01642 -1.90507,2.33617 -1.5694,3.78525 1.37574,5.93878 3.37744,2.46967 3.89567,7.38467 3.89567,36.94872 -0.71671,12.32924 -0.59377,25.03018 -2.63706,32.00409 -1.07893,3.68249 -3.84117,4.56703 -9.19643,6.87744 -4.69256,2.02449 -11.37334,3.74627 -18.88143,5.17123 -13.53588,2.56898 -51.18615,3.50447 -73.20825,3.69748 z"
     style="display:inline;fill:url(#linearGradient851);fill-opacity:1;stroke-width:2.27517939" />
  <path
     style="display:inline;fill:#000000;stroke-width:2.27517939"
     d="m 143.14433,279.70158 c -22.02209,0.193 -48.156805,-2.72209 -57.45315,-4.0966 -9.296342,-1.37449 -17.441165,-3.46015 -21.596817,-5.44184 -4.679554,-1.57967 -6.876805,-2.54595 -7.767353,-6.0038 -2.064987,-8.01803 -2.649736,-22.71385 -2.649736,-32.28386 0,-29.49243 0.518882,-34.40368 3.895683,-36.87286 2.945119,-2.15353 3.280801,-3.60261 1.375723,-5.93878 -1.38598,-1.69958 -4.698606,-10.25699 -7.361397,-19.01642 -7.17609,-23.60626 -19.14044,-51.12795 -22.241311,-51.16184 -8.796044,-0.52814 -16.36983,-9.96198 -17.253561,-18.35699 -1.358312,-12.903279 8.98541,-22.625922 20.276328,-22.625922 8.706607,0 15.919737,4.552383 18.649542,11.796098 2.198513,5.833896 3.296423,14.606144 -4.008153,23.557794 -2.202674,2.69935 -0.871838,4.45301 13.01279,19.88117 19.933169,22.14913 32.618392,36.03579 34.516962,34.69052 2.001321,-1.23688 4.652388,-24.75526 8.10144,-58.24093 C 105.626,80.6099 106.65441,80.99494 101.29905,78.990433 90.127787,74.809039 87.824543,64.933718 87.813466,57.097874 c -0.005,-3.50734 1.528274,-8.935626 5.347169,-13.082281 4.297081,-4.665884 9.712245,-7.066148 16.839125,-7.066148 19.39146,0 28.12106,20.805231 15.18178,36.182694 l -6.08527,6.02067 6.46758,19.749655 c 5.78173,17.655356 13.04651,37.977166 18.8983,53.241886 2.52647,6.59044 4.98732,10.08728 8.61374,4.81425 2.56389,-4.44078 16.26496,-37.13037 22.62257,-58.056136 l 5.32978,-20.098694 -6.01526,-4.681161 c -5.29964,-4.124257 -8.47679,-14.454916 -5.44993,-22.520155 3.08527,-8.220864 11.55071,-14.888696 21.18197,-14.653009 7.12474,0.17435 10.77793,1.453746 16.00884,7.053453 3.84818,4.119492 5.88909,10.930472 5.88413,14.144491 -0.0111,7.835844 -3.73114,16.496613 -13.19227,20.843044 -5.19611,2.387085 -4.55489,2.156377 -1.57018,31.133797 0.10591,1.02858 0.21216,2.04805 0.3186,3.05802 3.35861,31.87027 6.07092,53.4471 8.01074,54.646 2.05232,1.26839 16.0574,-12.31147 35.29516,-34.22361 12.82396,-14.60669 15.39256,-17.28596 12.30769,-21.3158 -11.64926,-15.217667 -2.81087,-34.370487 14.56831,-34.386172 13.1967,-0.01191 22.18595,11.468435 20.37266,22.868922 -1.26002,7.9219 -8.66455,16.58613 -17.34988,18.11399 -3.10089,0.0338 -15.06525,27.55558 -22.24135,51.16184 -2.66277,8.75943 -5.9754,17.31684 -7.36138,19.01642 -1.90507,2.33617 -1.5694,3.78525 1.37574,5.93878 3.37744,2.46967 3.89567,7.38467 3.89567,36.94872 -0.71671,12.32924 -0.59377,25.03018 -2.63706,32.00409 -1.07893,3.68249 -3.84117,4.56703 -9.19643,6.87744 -4.69256,2.02449 -11.37334,3.74627 -18.88143,5.17123 -13.53588,2.56898 -51.18615,3.50447 -73.20825,3.69748 z M 98.043267,255.24397 c 23.083243,-2.83022 60.192233,-3.4303 92.916323,-1.07419 13.42402,0.96651 26.29109,2.75959 36.23716,4.45775 8.73056,1.49063 9.6695,1.20448 9.6695,-2.94679 0,-7.40929 -2.54316,-8.18583 -30.22895,-12.18077 -30.33555,-4.37729 -83.0877,-3.79593 -113.850461,1.32063 -25.844307,4.29851 -27.367596,3.89106 -27.367596,9.75961 0,4.15127 0.718833,5.53795 9.449407,4.04732 5.318232,-0.90803 14.415177,-2.30956 23.174617,-3.38356 z m -5.754165,-22.06181 c 6.568662,-3.28841 5.937691,-13.71401 -1.062132,-16.90334 -4.692171,-2.1379 -12.437967,0.5598 -13.870028,6.38128 -1.625631,6.60838 4.51183,15.7387 14.93216,10.52206 z M 221.5855,232.15981 c 4.04151,-4.04151 3.63359,-10.61357 -0.89556,-14.49763 -6.22209,-5.63089 -16.61703,-1.40803 -16.85084,6.82771 -0.31128,10.96399 12.03234,13.07268 17.7464,7.66992 z m -82.41151,-7.81972 c 2.00486,-5.69729 -0.40072,-11.55787 -5.25407,-13.27109 -5.83698,-2.06043 -12.8869,1.12131 -13.80028,6.92965 -1.33642,6.71811 2.18839,11.96527 9.31279,12.05644 4.78447,0.0613 8.36623,-2.01509 9.74156,-5.715 z m 42.54912,2.17616 c 3.68313,-4.43792 1.38499,-12.83518 -3.5768,-14.90418 -4.58974,-1.91386 -9.24512,-1.17473 -12.97005,2.65345 -2.77997,2.85703 -2.45103,9.01988 -0.96422,11.6153 3.2104,5.60423 13.02722,6.03811 17.51107,0.63543 z M 76.580714,209.39267 c 15.227663,-3.41711 36.163146,-8.86983 73.791676,-8.86983 37.76726,0 58.40649,3.89553 73.80669,8.47422 9.06488,2.69512 13.7877,2.76658 13.7877,-2.39533 0,-4.35476 -4.90202,-6.74031 -20.47662,-9.96483 -37.3616,-7.73528 -72.37716,-8.96449 -109.20859,-3.83378 -39.531824,5.50691 -47.587953,8.34646 -44.739499,15.76941 1.682686,4.385 2.71599,3.13656 13.038643,0.82014 z m 8.491153,-22.15807 8.421041,-1.54263 -5.955148,-1.53318 c -3.275334,-0.84325 -9.162359,-4.81361 -13.082281,-8.82298 -7.885599,-8.06559 -8.418985,-7.52067 -4.491818,5.25474 1.381858,4.4953 0.825886,7.86112 2.073237,8.80114 1.051341,0.7923 6.040679,-0.87584 13.034969,-2.15709 z m 145.949753,-6.38007 c 3.56395,-12.83324 3.35909,-13.01695 -4.40217,-5.07852 -3.91994,4.00938 -10.1371,7.53953 -13.41244,8.38278 l -5.95514,1.53318 8.98951,1.62044 c 8.03975,1.44925 12.08138,3.48548 13.31708,2.28667 0.83384,-0.80896 0.33928,-4.69766 1.46316,-8.74455 z m -98.85066,-0.59703 c 6.5275,-0.16524 6.92385,-0.26499 1.90972,-4.01894 -2.70369,-1.49644 -7.27303,-6.53491 -10.15411,-11.19658 l -5.23831,-8.47576 -1.8495,8.90174 c -1.01723,4.89596 -3.51742,10.74477 -5.55597,12.99735 -3.51153,3.88018 -2.82568,4.69198 4.94463,3.51512 4.81513,-0.72928 10.582,-1.30189 15.94354,-1.72293 z m 57.29102,-1.79219 c -2.03854,-2.25258 -4.53873,-8.10139 -5.55596,-12.99735 l -1.84951,-8.90174 -5.2383,8.47576 c -2.88109,4.66167 -7.6804,9.34456 -10.15412,11.19658 -5.01413,3.75395 -5.80164,4.21062 2.06536,4.33021 4.06531,0.142 11.11439,0.2997 15.94354,1.02258 8.21523,1.22972 8.30053,0.75417 4.78899,-3.12604 z"
     id="path843"
     inkscape:connector-curvature="0"
     sodipodi:nodetypes="zccscccscssssscsscssscsscscsssscssscssssccsccscszsscssssssssssccsccscsccssscssssssssscccsssccccsscccccscsccscsscsc" />
</svg>
