<?xml version="1.0" encoding="UTF-8" standalone="no"?>
<svg
   version="1.0"
   width="300.000000pt"
   height="300.000000pt"
   viewBox="0 0 300.000000 300.000000"
   preserveAspectRatio="xMidYMid meet"
   id="svg2"
   inkscape:version="1.4.2 (f4327f4, 2025-05-13)"
   sodipodi:docname="wp.svg"
   xmlns:inkscape="http://www.inkscape.org/namespaces/inkscape"
   xmlns:sodipodi="http://sodipodi.sourceforge.net/DTD/sodipodi-0.dtd"
   xmlns:xlink="http://www.w3.org/1999/xlink"
   xmlns="http://www.w3.org/2000/svg"
   xmlns:svg="http://www.w3.org/2000/svg"
   xmlns:rdf="http://www.w3.org/1999/02/22-rdf-syntax-ns#"
   xmlns:cc="http://creativecommons.org/ns#"
   xmlns:dc="http://purl.org/dc/elements/1.1/">
  <defs
     id="defs12">
    <linearGradient
       inkscape:collect="always"
       id="linearGradient849">
      <stop
         style="stop-color:#fffdf4;stop-opacity:1"
         offset="0"
         id="stop845" />
      <stop
         style="stop-color:#d6d0c2;stop-opacity:1"
         offset="1"
         id="stop847" />
    </linearGradient>
    <linearGradient
       inkscape:collect="always"
       xlink:href="#linearGradient849"
       id="linearGradient851"
       x1="67.820984"
       y1="152.23485"
       x2="229.71766"
       y2="152.23485"
       gradientUnits="userSpaceOnUse" />
  </defs>
  <sodipodi:namedview
     pagecolor="#ffffff"
     bordercolor="#666666"
     borderopacity="1"
     objecttolerance="10"
     gridtolerance="10"
     guidetolerance="10"
     inkscape:pageopacity="0"
     inkscape:pageshadow="2"
     inkscape:window-width="1497"
     inkscape:window-height="905"
     id="namedview10"
     showgrid="false"
     inkscape:zoom="1.6499838"
     inkscape:cx="200.60803"
     inkscape:cy="212.42633"
     inkscape:window-x="182"
     inkscape:window-y="8"
     inkscape:window-maximized="0"
     inkscape:current-layer="svg2"
     inkscape:pagecheckerboard="true"
     inkscape:showpageshadow="2"
     inkscape:deskcolor="#d1d1d1"
     inkscape:document-units="pt">
    <inkscape:grid
       type="xygrid"
       id="grid842"
       originx="0"
       originy="0"
       spacingy="1"
       spacingx="1"
       units="px" />
  </sodipodi:namedview>
  <metadata
     id="metadata4">
Created by potrace 1.12, written by Peter Selinger 2001-2015
<rdf:RDF>
  <cc:Work
     rdf:about="">
    <dc:format>image/svg+xml</dc:format>
    <dc:type
       rdf:resource="http://purl.org/dc/dcmitype/StillImage" />
    <dc:title />
  </cc:Work>
</rdf:RDF>
</metadata>
  <path
     sodipodi:nodetypes="cssssssscsssscssscscsscsssscssccc"
     inkscape:connector-curvature="0"
     id="path855"
     d="m 83.925485,269.00792 c -8.124012,-1.5624 -6.83811,-10.97384 2.982305,-21.82738 4.036759,-4.46145 6.840076,-7.51919 8.427192,-10.06588 1.415574,-2.2714 -0.588602,-6.76421 -3.644529,-9.29656 -1.962285,-1.62607 -4.805714,-7.08208 -6.318733,-12.12443 -4.048824,-13.49329 2.048266,-27.75754 17.32262,-40.52658 4.98953,-4.17115 10.09354,-8.19746 13.52842,-12.91574 5.2928,-7.27045 7.66562,-15.31437 7.66562,-21.29882 l -0.17041,-6.73208 H 95.087839 c -26.633849,0 -27.266855,0.0221 -27.266855,-4.22936 0,-2.7376 4.245342,-4.86245 9.296255,-8.54652 5.278662,-3.85019 17.276303,-12.7473 29.341581,-20.46813 l 21.9369,-14.037845 -4.63061,-7.582803 c -9.10899,-14.916386 -3.82182,-36.162816 10.88899,-42.300071 29.31099,-12.228356 55.42948,16.149736 39.46025,42.300071 l -5.2632,6.697145 22.56949,14.923503 c 11.94838,7.90057 24.06294,16.63498 28.98373,19.5905 5.35935,3.21896 9.31329,6.34572 9.31329,9.08333 0,4.25149 -0.633,4.57018 -27.26684,4.57018 h -28.63014 l 0.17041,6.73208 c 0.16525,6.52768 2.71656,14.37869 8.91255,22.26942 3.16775,4.0342 7.99255,8.35967 12.2815,11.94514 15.27434,12.76902 21.37142,27.03329 17.3226,40.52658 -1.51301,5.04235 -3.38134,9.16274 -6.14879,12.13079 -2.83736,3.09508 -4.68358,6.8759 -2.6118,10.03277 1.61712,2.46412 5.46298,6.63361 9.12236,10.96809 8.90119,10.54335 9.22792,18.3318 -1.00314,20.37493 -8.18347,1.6342 -119.311945,1.46717 -127.940885,-0.19225 z"
     style="display:inline;fill:url(#linearGradient851);stroke-width:2.38403559;fill-opacity:1" />
  <path
     style="display:inline;fill:#000000;stroke-width:2.38403559"
     d="m 83.925485,269.00792 c -8.124012,-1.5624 -6.83811,-10.97384 2.982305,-21.82738 4.036759,-4.46145 6.840076,-7.51919 8.427192,-10.06588 1.415574,-2.2714 -0.588602,-6.76421 -3.644529,-9.29656 -1.962285,-1.62607 -4.805714,-7.08208 -6.318733,-12.12443 -4.048824,-13.49329 2.048266,-27.75754 17.32262,-40.52658 4.98953,-4.17115 10.09354,-8.19746 13.52842,-12.91574 5.2928,-7.27045 7.66562,-15.31437 7.66562,-21.29882 l -0.17041,-6.73208 H 95.087839 c -26.633849,0 -27.266855,0.0221 -27.266855,-4.22936 0,-2.7376 4.245342,-4.86245 9.296255,-8.54652 5.278662,-3.85019 17.276303,-12.7473 29.341581,-20.46813 l 21.9369,-14.037845 -4.63061,-7.582803 c -9.10899,-14.916386 -3.82182,-36.162816 10.88899,-42.300071 29.31099,-12.228356 55.42948,16.149736 39.46025,42.300071 l -5.2632,6.697145 22.56949,14.923503 c 11.94838,7.90057 24.06294,16.63498 28.98373,19.5905 5.35935,3.21896 9.31329,6.34572 9.31329,9.08333 0,4.25149 -0.633,4.57018 -27.26684,4.57018 h -28.63014 l 0.17041,6.73208 c 0.16525,6.52768 2.71656,14.37869 8.91255,22.26942 3.16775,4.0342 7.99255,8.35967 12.2815,11.94514 15.27434,12.76902 21.37142,27.03329 17.3226,40.52658 -1.51301,5.04235 -3.38134,9.16274 -6.14879,12.13079 -2.83736,3.09508 -4.68358,6.8759 -2.6118,10.03277 1.61712,2.46412 5.46298,6.63361 9.12236,10.96809 8.90119,10.54335 9.22792,18.3318 -1.00314,20.37493 -8.18347,1.6342 -119.311945,1.46717 -127.940885,-0.19225 z M 203.58556,257.40446 c 1.12731,-1.82123 -0.166,-4.87007 -8.17507,-11.99963 -6.97226,-6.20662 -7.47658,-7.10901 -15.47357,-7.17226 -4.276,-0.0339 -5.2144,-2.9753 -5.29136,-5.20929 -0.15735,-4.56658 2.37188,-5.79804 8.74181,-5.56259 9.93364,-1.06795 13.28278,-4.81487 16.95324,-16.24477 2.08031,-6.47815 0.0376,-12.96489 -5.52124,-19.90086 -2.29464,-2.86317 -4.33806,-5.54622 -9.02123,-9.2876 -5.62956,-4.49747 -11.21371,-9.9012 -14.54518,-14.40066 -6.20811,-8.38458 -8.28112,-16.05206 -8.74358,-25.39912 -0.43405,-8.77302 -0.6353,-8.3344 -14.11962,-8.3344 -13.48432,0 -11.27726,0.96511 -12.0816,8.3344 -0.97197,8.90528 -2.17585,16.46264 -7.63023,24.41081 -3.30155,4.81109 -9.23662,10.96995 -16.19528,16.46256 -5.34825,4.22145 -7.0225,6.23619 -9.40683,9.06676 -5.749335,6.82534 -6.375868,12.29976 -5.379721,18.01423 1.851295,10.00005 8.358951,16.7909 18.039521,17.73233 5.55347,-0.11851 8.70202,0.62108 8.75715,5.1322 0.0324,2.65302 -1.35688,5.31956 -6.24478,5.49146 -7.19517,0.25304 -6.3577,-0.75751 -15.73373,8.37005 -5.607974,5.45933 -9.166111,8.56572 -7.830156,10.43334 1.665574,2.32845 107.240346,2.42566 108.901456,0.063 z m -0.83781,-134.48775 c 0,-1.35446 -46.13102,-30.210328 -51.70107,-32.105267 -4.85887,-1.652991 -11.02103,2.888372 -28.14799,13.290737 -13.23393,8.03785 -25.714251,16.96776 -26.960851,18.14324 -1.341744,1.26519 20.463941,0.74549 52.524731,0.74549 29.78726,0 54.28518,0.45374 54.28518,-0.0743 z M 163.68227,72.79372 c 5.3535,-6.795565 3.22809,-16.219054 -2.57116,-22.650374 -4.79739,-5.320237 -18.792,-5.551576 -24.03668,0.215983 -10.29111,11.317072 -2.75256,29.75146 12.02601,29.75146 5.87888,0 10.81295,-2.533003 14.58183,-7.317069 z"
     id="path843"
     inkscape:connector-curvature="0"
     sodipodi:nodetypes="cssssssscsssscssscscsscsssscsscccsssscssssssssssccsssscscscsssccsssc" />
</svg>
