<svg xmlns="http://www.w3.org/2000/svg" viewBox="0 0 50 50" width="1000" height="1000">
  <defs>
    <linearGradient id="L0" gradientUnits="userSpaceOnUse" x1="9.94695" y1="6.3660479" x2="38.992043" y2="44.297081">
      <stop style="stop-color:lime" id="stop9"/>
      <stop style="stop-color:#003000" offset="1" id="stop11"/>
    </linearGradient>
    <radialGradient id="R0" gradientUnits="userSpaceOnUse" cx="24.933687" cy="25.066313" fx="24.933687" fy="25.066313" r="23">
      <stop style="stop-color:#00a000" id="stop14"/>
      <stop style="stop-color:#00a000" offset=".78571427" id="stop16"/>
      <stop style="stop-color:#00a000;stop-opacity:0" offset="1" id="stop18"/>
    </radialGradient>
  </defs>

  <path id="P0" d="M49.634373,24.99999C 49.634373,38.530961 38.665353,49.499981 25.134382,49.499981C 11.603411,49.499981 .63439133,38.530961 .63439133,24.99999C .63439133,11.469019 11.603411,0.49999979 25.134382,0.49999979C 38.665353,0.49999979 49.634373,11.469019 49.634373,24.99999z" transform="translate(-.134407,-1.537613e-5)" style="stroke-width:0.25;stroke-miterlimit:4;stroke-dasharray:none;stroke:#000;fill:url(#L0)"/>

  <path id="P1" d="M49.499981,24.99999C 49.499981,38.530961 38.530961,49.499981 24.99999,49.499981C 11.469019,49.499981 .49999979,38.530961 .49999979,24.99999C .49999979,11.469019 11.469019,0.49999979 24.99999,0.49999979C 38.530961,0.49999979 49.499981,11.469019 49.499981,24.99999z" transform="translate(-1.502943e-5,-1.537613e-5)" style="stroke-width:0.25;stroke-miterlimit:4;stroke-dasharray:none;fill:url(#R0)"/>

  <!-- Signo + rojo, más grande, grueso, con esquinas cuadradas -->
  <line x1="15" y1="25" x2="35" y2="25" stroke="red" stroke-width="7" stroke-linecap="square"/>
  <line x1="25" y1="15" x2="25" y2="35" stroke="red" stroke-width="7" stroke-linecap="square"/>
</svg>
