<?xml version="1.0" encoding="UTF-8" standalone="no"?>
<svg
   version="1.0"
   width="300.000000pt"
   height="300.000000pt"
   viewBox="0 0 300.000000 300.000000"
   preserveAspectRatio="xMidYMid meet"
   id="svg2"
   inkscape:version="1.4.2 (f4327f4, 2025-05-13)"
   sodipodi:docname="bk.svg"
   xmlns:inkscape="http://www.inkscape.org/namespaces/inkscape"
   xmlns:sodipodi="http://sodipodi.sourceforge.net/DTD/sodipodi-0.dtd"
   xmlns="http://www.w3.org/2000/svg"
   xmlns:svg="http://www.w3.org/2000/svg"
   xmlns:rdf="http://www.w3.org/1999/02/22-rdf-syntax-ns#"
   xmlns:cc="http://creativecommons.org/ns#"
   xmlns:dc="http://purl.org/dc/elements/1.1/">
  <defs
     id="defs12" />
  <sodipodi:namedview
     pagecolor="#ffffff"
     bordercolor="#666666"
     borderopacity="1"
     objecttolerance="10"
     gridtolerance="10"
     guidetolerance="10"
     inkscape:pageopacity="0"
     inkscape:pageshadow="2"
     inkscape:window-width="1520"
     inkscape:window-height="1002"
     id="namedview10"
     showgrid="false"
     inkscape:zoom="1.7607851"
     inkscape:cx="-340.75709"
     inkscape:cy="250.45646"
     inkscape:window-x="4"
     inkscape:window-y="0"
     inkscape:window-maximized="0"
     inkscape:current-layer="svg2"
     inkscape:pagecheckerboard="true"
     showguides="false"
     inkscape:showpageshadow="2"
     inkscape:deskcolor="#d1d1d1"
     inkscape:document-units="pt">
    <inkscape:grid
       type="xygrid"
       id="grid22745"
       originx="0"
       originy="0"
       spacingy="1"
       spacingx="1"
       units="px" />
  </sodipodi:namedview>
  <metadata
     id="metadata4">
Created by potrace 1.12, written by Peter Selinger 2001-2015
<rdf:RDF>
  <cc:Work
     rdf:about="">
    <dc:format>image/svg+xml</dc:format>
    <dc:type
       rdf:resource="http://purl.org/dc/dcmitype/StillImage" />
    <dc:title />
  </cc:Work>
</rdf:RDF>
</metadata>
  <path
     style="display:inline;opacity:1;fill:#e3dfd3;fill-opacity:1;stroke-width:2.262187"
     d="m 151.18059,-6.0267621 c -6.64267,-0.2792728 -14.75141,-0.6023228 -18.96287,5.74955031 -4.89519,5.90753079 -1.54493,13.66705079 -2.338,20.45378979 -9.90075,-0.22037 -22.43513,-2.333405 -29.58945,6.283055 -3.772299,8.772041 -3.141005,19.595856 1.06328,27.968014 7.05314,8.105503 19.2929,4.784876 28.2754,4.715369 -0.51871,4.319796 2.54554,11.079516 -3.76191,12.155724 -10.94105,6.375264 -18.19536,17.926592 -20.58785,30.12666 C 97.838445,84.999018 83.959868,69.491595 64.97609,67.231784 40.99968,62.950576 13.206633,76.642313 6.8936051,100.9432 c -6.82443811,24.29706 4.5124119,48.95235 16.8388699,69.51372 5.609924,10.33336 13.352345,20.65959 20.396679,29.16636 -9.363018,3.67936 -14.719365,14.05227 -12.889745,23.74444 -0.186649,17.41739 -1.412505,35.71826 4.791818,52.29244 7.476996,11.57642 23.173866,11.23507 35.152515,14.23025 50.762398,8.80886 102.781908,6.58016 153.774278,1.05268 12.17665,-1.96838 25.53948,-3.3688 35.71974,-10.84866 10.77425,-10.64442 7.43235,-27.18274 8.55999,-40.69455 0.67893,-13.24275 1.15495,-29.94875 -11.31664,-38.37922 -1.18849,-1.22778 -5.20509,-1.59912 -1.65191,-3.46574 16.43157,-18.36773 28.16858,-40.62 36.14024,-63.73 5.80624,-20.37574 0.89969,-45.379313 -17.58569,-57.909304 -23.11703,-16.831604 -60.57661,-10.342545 -74.47317,15.206965 -2.23567,3.085207 -4.52522,8.761343 -6.06671,10.200209 -2.65737,-13.860806 -11.87134,-26.764333 -25.09592,-32.488437 0.0634,-3.356914 -0.95994,-6.753439 -0.12643,-10.068895 9.90381,0.118619 22.57979,2.403089 29.65579,-6.379497 4.03554,-8.912627 3.49294,-20.184568 -1.62082,-28.458428 -7.61751,-7.477411 -19.42488,-3.088192 -28.3355,-3.913058 1.30868,-8.868446 1.01796,-21.7059942 -9.15914,-25.2491863 -2.713,-0.8175104 -5.61058,-0.8257457 -8.42126,-0.7920508 z"
     id="path844"
     inkscape:connector-curvature="0"
     sodipodi:nodetypes="ccccccccccccccccccccccccccccccc" />
  <path
     sodipodi:nodetypes="cssccsccssccsssssszzszzcssscccczccscssssscsssssssscscscscccssssscsssssscccsccsscscccscsccccsccscscsccc"
     inkscape:connector-curvature="0"
     id="path846"
     d="m 99.172977,284.30239 c -22.83491,-1.99469 -49.772791,-7.55921 -53.476961,-11.22306 -2.437609,-2.41107 -3.011657,-6.09883 -3.918416,-12.84061 -1.057905,-7.86553 -1.001563,-18.43222 -1.344254,-30.50746 0.628181,-14.21592 -1.087819,-18.30678 8.61482,-21.68154 15.157221,-4.42066 43.061551,-11.31735 102.259594,-11.31735 59.19803,0 82.20799,4.45539 99.09546,11.31735 9.46217,2.53239 9.22615,14.10258 9.46875,23.72243 -0.2575,11.77826 -0.13564,18.73501 -0.82561,26.1999 -0.8004,8.65946 -1.68797,13.1495 -5.24947,15.7375 -13.66615,9.93065 -95.00526,15.80062 -154.623883,10.59284 z M 207.63564,272.16041 c 29.20559,-3.26416 41.25588,-7.23034 31.22248,-11.0366 -10.25266,-3.88946 -48.43971,-5.67467 -87.1221,-5.54983 -43.97751,0.14192 -90.784481,3.82174 -95.419433,8.40383 -2.63056,2.60057 9.221498,5.37244 24.81565,7.34865 38.546203,4.88485 81.245103,5.89225 126.503403,0.83395 z M 87.228786,247.66467 c 3.593749,-2.71175 4.9228,-9.03819 2.205615,-13.6549 -2.717186,-4.61671 -9.737287,-5.16785 -14.170306,-2.85787 -3.595583,1.87361 -7.091382,8.49611 -2.821616,14.61779 4.269766,6.12164 11.192558,4.60675 14.786307,1.89498 z M 227.4937,245.79655 c 3.93969,-5.86591 0.78153,-12.87979 -1.48553,-14.62014 -4.24563,-3.25925 -12.39729,-1.9949 -14.92735,0.86492 -3.4051,3.84889 -3.56999,10.59988 0.67844,15.01423 3.09122,3.21192 12.63799,3.29356 15.73444,-1.25901 z m -68.38643,-1.73756 c 3.28686,-3.92109 4.63368,-13.20364 -0.50043,-16.99669 -5.19813,-4.71339 -12.34941,-3.83944 -17.01528,-0.28136 -5.45371,5.41029 -3.99201,14.83687 0.17094,17.89097 4.16295,3.05411 11.4633,3.87533 17.34477,-0.61292 z M 68.956151,222.9379 c 15.704219,-4.22949 45.471709,-6.69804 80.769549,-6.69804 35.29782,0 65.06531,2.46855 80.76953,6.69804 15.76297,4.24533 18.20159,2.66238 18.20159,-1.58844 0,-4.00064 -7.98286,-7.36017 -22.30922,-9.83793 -17.28214,-2.98896 -45.37745,-5.81347 -76.4359,-5.36597 -26.5275,0.38223 -49.68599,1.38931 -66.336022,4.00713 -22.144385,3.4817 -32.861112,6.26575 -32.861112,11.19677 0,4.25048 2.438631,5.83343 18.201585,1.58844 z M 53.901165,196.05139 C 45.495433,189.2694 22.967856,152.78056 18.578152,138.83726 12.461458,119.40843 12.99981,105.24248 20.267459,94.385576 30.895431,78.508782 47.28903,73.835905 65.650875,77.334449 c 16.596216,3.162132 24.227736,12.0288 37.419385,42.854771 13.13648,30.697 23.40689,39.36187 46.65544,39.36187 23.24852,0 33.03973,-8.8702 46.65541,-39.36187 12.96567,-29.035982 21.20826,-39.493957 37.19339,-42.7078 19.39072,-3.898544 34.98146,1.027352 45.60942,16.904156 11.81746,17.653704 6.18882,44.477604 -16.58822,79.053204 -14.53605,22.06575 -23.09261,29.65588 -27.98243,24.82185 -1.97068,-1.94822 -1.12783,-6.34604 3.41838,-17.8361 8.77373,-22.17476 9.5885,-28.29519 4.8274,-36.26317 -6.93959,-11.61377 -24.12332,-12.83235 -40.06006,-2.84081 -12.56905,7.88014 -19.62543,16.74745 -29.27405,36.78685 -5.62688,15.59689 -8.18036,15.15996 -23.79924,15.15996 -16.98951,0.24768 -17.09889,-1.24379 -23.79926,-15.15996 -9.6486,-20.0394 -16.70498,-28.90671 -29.27405,-36.78685 -15.915215,-9.97803 -33.120476,-8.77296 -40.038229,2.8043 -4.767321,7.97839 -3.837079,15.24822 4.567725,35.69667 7.717612,18.77655 4.570553,25.79184 -7.280721,16.22987 z m 21.807107,-14.93392 c -7.48365,-16.43362 -8.434658,-24.08021 -2.966896,-29.48562 9.323616,-8.54713 26.160145,0.85571 40.874164,26.43086 7.73497,13.4445 9.99433,15.50859 -2.14264,16.24266 -5.93193,0.35876 -14.759452,0.89303 -18.204143,1.19631 -12.747377,1.12236 -10.88771,0.26879 -17.560485,-14.38421 z M 188.3336,193.90059 c -11.14793,-0.0501 -9.7495,-2.19158 -2.49776,-15.83788 13.80969,-25.98706 31.70232,-34.86612 40.87417,-26.43086 5.46776,5.40541 4.69043,13.13059 -2.9669,29.48562 -7.43389,14.61325 -2.59239,14.62028 -16.49519,14.04352 -5.35868,-0.20795 -14.21866,-1.23927 -18.91432,-1.2604 z m -56.37626,-50.16945 c -11.98131,-6.80827 -21.49266,-26.36026 -16.16549,-44.9051 0.82268,-5.016131 5.36496,-12.193882 11.51506,-16.866555 4.62344,-3.512761 7.91728,-4.962358 11.07988,-5.661533 1.05486,-0.233204 0.76153,-3.441372 0.89392,-17.490032 -0.80096,-7.222411 1.61762,-8.923497 -5.10707,-8.997626 -3.5616,-0.03926 -10.52825,0.119261 -17.34459,0.253089 -8.21688,-0.182074 -9.15722,1.128768 -9.07614,-9.96842 0.35066,-11.932926 -2.18038,-10.068884 13.36726,-10.6012 6.18538,-0.14896 6.70262,-0.103882 13.30723,-0.121622 5.28958,-0.01422 4.98676,-0.775778 4.91191,-4.56385 0.1073,-6.736581 -0.10938,-13.075871 0.0642,-16.5795562 0.21314,-4.3015004 -0.55591,-4.6840855 9.02466,-4.6840855 10.82812,-0.2373222 10.65832,-0.1820608 11.01192,6.0977686 -0.0175,5.1495021 -0.17074,10.3365801 -0.10825,15.2272931 -0.17687,4.468455 0.27366,4.672382 7.75761,4.560507 4.23224,-0.07123 10.68006,-0.04434 16.03105,-0.130845 7.81136,-0.126268 8.03774,-1.23945 8.37676,10.233277 -0.172,10.611553 0.11113,9.398965 -8.99913,9.821263 -5.94396,0.142445 -15.16646,0.154492 -17.19567,0.245366 -8.22012,0.368123 -5.35153,1.460364 -5.94637,11.618825 0.30323,8.325462 -0.36354,13.954759 0.92963,14.660035 1.64925,0.899481 5.35026,0.514351 11.65335,5.840631 11.45941,8.711706 14.63943,20.79493 12.85683,33.71594 -1.62382,11.77009 -5.16867,19.6086 -16.368,27.51507 -10.57377,6.98343 -24.07067,7.97455 -36.47058,0.78136 z"
     style="display:inline;opacity:1;fill:#000000;fill-opacity:1;stroke-width:2.262187" />
</svg>
