<?xml version="1.0" encoding="UTF-8" standalone="no"?>
<svg
   version="1.0"
   width="300.000000pt"
   height="300.000000pt"
   viewBox="0 0 300.000000 300.000000"
   preserveAspectRatio="xMidYMid meet"
   id="svg2"
   inkscape:version="1.4.2 (f4327f4, 2025-05-13)"
   sodipodi:docname="bp.svg"
   xmlns:inkscape="http://www.inkscape.org/namespaces/inkscape"
   xmlns:sodipodi="http://sodipodi.sourceforge.net/DTD/sodipodi-0.dtd"
   xmlns="http://www.w3.org/2000/svg"
   xmlns:svg="http://www.w3.org/2000/svg"
   xmlns:rdf="http://www.w3.org/1999/02/22-rdf-syntax-ns#"
   xmlns:cc="http://creativecommons.org/ns#"
   xmlns:dc="http://purl.org/dc/elements/1.1/">
  <defs
     id="defs12" />
  <sodipodi:namedview
     pagecolor="#ffffff"
     bordercolor="#666666"
     borderopacity="1"
     objecttolerance="10"
     gridtolerance="10"
     guidetolerance="10"
     inkscape:pageopacity="0"
     inkscape:pageshadow="2"
     inkscape:window-width="1259"
     inkscape:window-height="1005"
     id="namedview10"
     showgrid="false"
     inkscape:zoom="0.8133911"
     inkscape:cx="-967.55423"
     inkscape:cy="105.11549"
     inkscape:window-x="4"
     inkscape:window-y="0"
     inkscape:window-maximized="0"
     inkscape:current-layer="svg2"
     inkscape:pagecheckerboard="true"
     inkscape:showpageshadow="2"
     inkscape:deskcolor="#d1d1d1"
     inkscape:document-units="pt">
    <inkscape:grid
       type="xygrid"
       id="grid22745"
       originx="0"
       originy="0"
       spacingy="1"
       spacingx="1"
       units="px" />
  </sodipodi:namedview>
  <metadata
     id="metadata4">
Created by potrace 1.12, written by Peter Selinger 2001-2015
<rdf:RDF>
  <cc:Work
     rdf:about="">
    <dc:format>image/svg+xml</dc:format>
    <dc:type
       rdf:resource="http://purl.org/dc/dcmitype/StillImage" />
    <dc:title />
  </cc:Work>
</rdf:RDF>
</metadata>
  <path
     style="fill:#e3dfd3;fill-opacity:1;stroke-width:2.36232114"
     d="m 147.77344,25.087891 c -22.70074,-1.415183 -43.59801,23.599886 -35.13867,45.5 1.78025,5.274795 4.68071,10.104058 8.03906,14.517578 -16.95843,9.222147 -34.899617,18.087381 -48.201174,32.390621 -4.994628,8.06093 1.827952,20.2465 11.520818,19.14826 9.692507,1.1542 20.593676,0.26663 29.518246,1.62713 -1.08941,6.85183 -0.13649,14.91562 -6.4668,19.5625 -12.554206,15.02935 -31.972266,27.24573 -34.999998,48.22071 -1.892478,11.61557 3.758553,22.73656 5.658203,33.74804 -5.439608,8.55256 -16.182557,17.12452 -12.984375,28.54883 2.300769,8.76239 12.616242,11.40635 20.526818,9.92282 45.923762,0.92038 92.062672,2.19574 137.863812,-1.00876 11.33724,-4.60041 11.33793,-21.63384 2.51171,-28.78124 -3.99051,-3.75581 -9.707,-9.41224 -5.42968,-15.12891 6.52229,-14.98943 6.4773,-33.63699 -3.97852,-46.88086 -9.67246,-14.13754 -27.36308,-22.71508 -32.50977,-39.6875 0.23215,-2.7519 -1.40375,-7.37717 -0.21679,-9.0918 12.77954,-0.4461 26.91875,1.65929 38.57812,-4.5957 7.10402,-6.97287 2.25005,-19.07839 -5.73262,-23.11263 -11.91651,-10.467907 -26.30521,-17.464285 -40.26152,-24.740886 10.90448,-12.984435 13.50472,-34.314521 1.26953,-47.351563 -7.2163,-8.510823 -18.51994,-12.984604 -29.5664,-12.80664 z"
     id="path845"
     inkscape:connector-curvature="0" />
  <path
     style="fill:#000000;fill-opacity:1;stroke-width:2.36232114"
     d="m 75.502013,268.79767 c -4.569955,-2.64929 -1.724517,-10.37063 5.279645,-17.96804 6.459716,-7.00685 9.098551,-10.45457 4.481378,-19.73767 -2.517707,-6.01648 -5.09749,-14.65642 -4.23844,-22.2991 1.114435,-9.91477 2.77081,-14.50386 19.938414,-31.56104 18.69264,-18.57242 20.8066,-21.94053 21.06457,-33.5615 -0.72188,-9.37051 4.35129,-7.7973 17.30618,-8.26177 9.60685,-0.15735 21.21098,-0.0394 26.41302,0.2005 7.78941,0.43287 8.47055,1.05594 8.62418,8.01727 0.25752,11.66844 3.21448,16.10126 22.0335,34.57441 18.5507,18.20976 18.2229,23.9788 19.10129,30.8183 0.98228,7.64864 -1.74505,16.10255 -4.37023,22.07293 -4.46366,10.15151 -1.45915,12.62746 4.83759,19.85641 9.17031,10.52794 8.42159,14.49713 4.13904,17.97983 -4.46069,1.7091 -140.348484,1.58643 -144.610137,-0.13055 z M 195.03199,239.76078 c -0.0303,-5.63265 -4.74139,-5.35199 -46.70554,-5.35199 -41.96415,0 -47.19613,-0.057 -47.1278,5.51991 0.0579,4.72503 3.1423,5.15829 47.23114,5.15829 44.08884,0 46.62598,-0.89524 46.6022,-5.32621 z M 80.89743,126.74615 c -1.657998,-0.82536 -1.156469,-2.87207 -0.492594,-4.59961 2.094406,-5.45009 36.459454,-25.610716 51.287434,-32.718213 3.10496,-1.488299 2.92167,-2.349194 -2.00418,-7.626208 -9.05794,-9.703631 -12.42807,-22.89183 -7.80008,-31.443311 5.01789,-9.271897 11.53754,-15.766226 25.84515,-15.976894 12.21421,-0.179845 18.3091,4.09362 22.04134,8.818212 5.73747,7.262983 7.02675,11.034906 6.75648,18.465754 -0.69352,8.019153 -4.67442,14.792976 -9.17682,19.485247 -5.09263,5.19717 -5.74008,6.486215 -3.15336,8.03479 2.50888,1.50198 5.5298,2.764569 11.84911,6.136926 24.03665,12.175527 40.70939,24.391687 40.70939,29.187667 0,3.92272 -3.70746,4.22968 -52.60208,4.35525 -28.93116,0.0744 -58.60811,-0.15049 -66.37979,-0.41269 -8.67091,-0.0183 -15.934436,-0.76282 -16.88,-1.70692 z"
     id="path847"
     inkscape:connector-curvature="0"
     sodipodi:nodetypes="sscsscccsssssccscsssccssssssccscsccc" />
</svg>
